<svg width="32" height="32" viewBox="0 0 32 32" fill="none" xmlns="http://www.w3.org/2000/svg">
<g clip-path="url(#clip0_2540_5711)">
<rect width="32" height="32" rx="16" fill="url(#paint0_radial_2540_5711)"/>
<rect width="32" height="32" rx="16" fill="url(#paint1_radial_2540_5711)"/>
<path fill-rule="evenodd" clip-rule="evenodd" d="M16.0009 7.46667C13.6834 7.46667 13.3925 7.47681 12.4823 7.51823C11.5739 7.55983 10.9538 7.70366 10.4112 7.91468C9.84993 8.13264 9.37384 8.4242 8.89952 8.89869C8.42485 9.37301 8.13329 9.8491 7.91462 10.4102C7.70307 10.9529 7.55906 11.5732 7.51818 12.4813C7.47746 13.3915 7.4668 13.6826 7.4668 16.0001C7.4668 18.3176 7.47711 18.6076 7.51835 19.5178C7.56013 20.4263 7.70395 21.0464 7.9148 21.589C8.13294 22.1502 8.4245 22.6263 8.89899 23.1006C9.37313 23.5753 9.84922 23.8676 10.4101 24.0855C10.9531 24.2965 11.5733 24.4404 12.4816 24.482C13.3918 24.5234 13.6825 24.5335 15.9999 24.5335C18.3176 24.5335 18.6075 24.5234 19.5178 24.482C20.4262 24.4404 21.047 24.2965 21.59 24.0855C22.151 23.8676 22.6264 23.5753 23.1006 23.1006C23.5752 22.6263 23.8668 22.1502 24.0855 21.5891C24.2952 21.0464 24.4392 20.4261 24.4819 19.518C24.5228 18.6078 24.5335 18.3176 24.5335 16.0001C24.5335 13.6826 24.5228 13.3917 24.4819 12.4815C24.4392 11.573 24.2952 10.9529 24.0855 10.4103C23.8668 9.8491 23.5752 9.37301 23.1006 8.89869C22.6259 8.42402 22.1512 8.13246 21.5894 7.91468C21.0454 7.70366 20.425 7.55983 19.5165 7.51823C18.6063 7.47681 18.3165 7.46667 15.9983 7.46667H16.0009ZM15.2354 9.00444C15.4626 9.00409 15.7161 9.00444 16.0009 9.00444C18.2793 9.00444 18.5494 9.01262 19.4491 9.05351C20.2811 9.09156 20.7327 9.23058 21.0335 9.34738C21.4317 9.50205 21.7156 9.68694 22.0141 9.98561C22.3128 10.2843 22.4977 10.5687 22.6527 10.967C22.7695 11.2674 22.9087 11.719 22.9466 12.551C22.9875 13.4505 22.9963 13.7208 22.9963 15.9981C22.9963 18.2755 22.9875 18.5457 22.9466 19.4453C22.9085 20.2773 22.7695 20.7288 22.6527 21.0293C22.498 21.4275 22.3128 21.7111 22.0141 22.0096C21.7154 22.3082 21.4319 22.4931 21.0335 22.6478C20.733 22.7651 20.2811 22.9038 19.4491 22.9418C18.5495 22.9827 18.2793 22.9916 16.0009 22.9916C13.7223 22.9916 13.4522 22.9827 12.5527 22.9418C11.7207 22.9034 11.2691 22.7644 10.9681 22.6476C10.5699 22.4929 10.2855 22.3081 9.98679 22.0094C9.68812 21.7107 9.50323 21.427 9.3482 21.0286C9.2314 20.7281 9.0922 20.2766 9.05433 19.4446C9.01344 18.545 9.00527 18.2748 9.00527 15.996C9.00527 13.7172 9.01344 13.4484 9.05433 12.5488C9.09238 11.7168 9.2314 11.2653 9.3482 10.9645C9.50287 10.5662 9.68812 10.2818 9.98679 9.98312C10.2855 9.68445 10.5699 9.49956 10.9681 9.34454C11.2689 9.2272 11.7207 9.08853 12.5527 9.05031C13.3399 9.01476 13.645 9.00409 15.2354 9.00231V9.00444ZM20.556 10.4214C19.9906 10.4214 19.532 10.8795 19.532 11.445C19.532 12.0103 19.9906 12.469 20.556 12.469C21.1213 12.469 21.58 12.0103 21.58 11.445C21.58 10.8797 21.1213 10.4214 20.556 10.4214ZM16.0009 11.6178C13.5808 11.6178 11.6187 13.58 11.6187 16.0001C11.6187 18.4202 13.5808 20.3815 16.0009 20.3815C18.4211 20.3815 20.3825 18.4202 20.3825 16.0001C20.3825 13.58 18.4211 11.6178 16.0009 11.6178ZM16.0009 13.1556C17.5718 13.1556 18.8454 14.429 18.8454 16.0001C18.8454 17.5709 17.5718 18.8445 16.0009 18.8445C14.4299 18.8445 13.1564 17.5709 13.1564 16.0001C13.1564 14.429 14.4299 13.1556 16.0009 13.1556Z" fill="white"/>
</g>
<defs>
<radialGradient id="paint0_radial_2540_5711" cx="0" cy="0" r="1" gradientUnits="userSpaceOnUse" gradientTransform="translate(8.50004 34.4647) rotate(-90) scale(31.7144 29.4969)">
<stop stop-color="#FFDD55"/>
<stop offset="0.1" stop-color="#FFDD55"/>
<stop offset="0.5" stop-color="#FF543E"/>
<stop offset="1" stop-color="#C837AB"/>
</radialGradient>
<radialGradient id="paint1_radial_2540_5711" cx="0" cy="0" r="1" gradientUnits="userSpaceOnUse" gradientTransform="translate(-5.36017 2.30523) rotate(78.6806) scale(14.1765 58.4359)">
<stop stop-color="#3771C8"/>
<stop offset="0.128" stop-color="#3771C8"/>
<stop offset="1" stop-color="#6600FF" stop-opacity="0"/>
</radialGradient>
<clipPath id="clip0_2540_5711">
<rect width="32" height="32" fill="white"/>
</clipPath>
</defs>
</svg>
