<svg width="137" height="32" viewBox="0 0 137 32" fill="none" xmlns="http://www.w3.org/2000/svg">
<g clip-path="url(#clip0_2540_5697)">
<path d="M131.11 4.79999H127.803V5.59199H129.01V8.99999H129.896V5.59199H131.11V4.79999Z" fill="black"/>
<path d="M136.004 4.79999H135.092L133.807 6.78599L132.517 4.79999H131.605V8.99999H132.491V6.28199L133.756 8.22599H133.859L135.124 6.27599V8.99999H136.004V4.79999Z" fill="black"/>
<g clip-path="url(#clip1_2540_5697)">
<path d="M11.5172 24.968C8.53104 27.9542 3.4736 27.9423 2.0612 23.9624C1.78467 23.1832 1.56357 22.382 1.40096 21.5645C0.737003 18.2265 1.07777 14.7667 2.38016 11.6224C3.68255 8.4782 5.88807 5.79076 8.71782 3.89998C11.5476 2.0092 14.8745 1 18.2778 1C21.6811 1 25.008 2.0092 27.8377 3.89998C30.6675 5.79076 32.873 8.4782 34.1754 11.6225C35.4778 14.7667 35.8185 18.2265 35.1546 21.5645C34.992 22.382 34.7709 23.1832 34.4943 23.9624C33.0819 27.9423 28.0245 27.9542 25.0383 24.968L20.4287 20.3584C19.9883 19.918 20.0338 19.1917 20.1553 18.5809C20.2291 18.2096 20.1912 17.8247 20.0463 17.4749C19.9014 17.1251 19.6561 16.8261 19.3413 16.6158C19.0265 16.4055 18.6564 16.2932 18.2778 16.2932C17.8992 16.2932 17.5291 16.4055 17.2143 16.6158C16.8994 16.8261 16.6541 17.1251 16.5092 17.4749C16.3643 17.8247 16.3264 18.2096 16.4003 18.5809C16.5218 19.1917 16.5672 19.918 16.1268 20.3584L11.5172 24.968Z" fill="url(#paint0_linear_2540_5697)"/>
<path d="M50.8487 22H46.2081V8.90909H50.8871C52.2038 8.90909 53.3374 9.17116 54.2876 9.69531C55.2379 10.2152 55.9688 10.9631 56.4801 11.9389C56.9957 12.9148 57.2536 14.0824 57.2536 15.4418C57.2536 16.8054 56.9957 17.9773 56.4801 18.9574C55.9688 19.9375 55.2337 20.6896 54.2749 21.2138C53.3203 21.7379 52.1783 22 50.8487 22ZM48.9759 19.6286H50.7337C51.5518 19.6286 52.2401 19.4837 52.7983 19.1939C53.3608 18.8999 53.7827 18.446 54.0639 17.8324C54.3494 17.2145 54.4922 16.4176 54.4922 15.4418C54.4922 14.4744 54.3494 13.6839 54.0639 13.0703C53.7827 12.4567 53.3629 12.005 52.8047 11.7152C52.2464 11.4254 51.5582 11.2805 50.7401 11.2805H48.9759V19.6286ZM59.2527 22V12.1818H61.9757V22H59.2527ZM60.6206 10.9162C60.2157 10.9162 59.8684 10.782 59.5787 10.5135C59.2931 10.2408 59.1504 9.91477 59.1504 9.53551C59.1504 9.16051 59.2931 8.83878 59.5787 8.57031C59.8684 8.29758 60.2157 8.16122 60.6206 8.16122C61.0254 8.16122 61.3706 8.29758 61.6561 8.57031C61.9458 8.83878 62.0907 9.16051 62.0907 9.53551C62.0907 9.91477 61.9458 10.2408 61.6561 10.5135C61.3706 10.782 61.0254 10.9162 60.6206 10.9162ZM66.88 16.3239V22H64.157V12.1818H66.7521V13.9141H66.8672C67.0845 13.343 67.4489 12.8913 67.9602 12.5589C68.4716 12.2223 69.0916 12.054 69.8203 12.054C70.5021 12.054 71.0966 12.2031 71.6037 12.5014C72.1108 12.7997 72.505 13.2259 72.7862 13.7798C73.0675 14.3295 73.2081 14.9858 73.2081 15.7486V22H70.4851V16.2344C70.4893 15.6335 70.3359 15.1648 70.0249 14.8281C69.7138 14.4872 69.2855 14.3168 68.7401 14.3168C68.3736 14.3168 68.0497 14.3956 67.7685 14.5533C67.4915 14.7109 67.2741 14.9411 67.1165 15.2436C66.9631 15.5419 66.8842 15.902 66.88 16.3239ZM79.8287 22.1918C78.8187 22.1918 77.9494 21.9872 77.2207 21.5781C76.4963 21.1648 75.938 20.581 75.546 19.8267C75.1539 19.0682 74.9579 18.1712 74.9579 17.1357C74.9579 16.1257 75.1539 15.2393 75.546 14.4766C75.938 13.7138 76.4899 13.1193 77.2015 12.6932C77.9174 12.267 78.7569 12.054 79.72 12.054C80.3677 12.054 80.9707 12.1584 81.5289 12.3672C82.0914 12.5717 82.5815 12.8807 82.9991 13.294C83.421 13.7074 83.7491 14.2273 83.9835 14.8537C84.2179 15.4759 84.3351 16.2045 84.3351 17.0398V17.7876H76.0446V16.1001H81.7718C81.7718 15.7081 81.6866 15.3608 81.5162 15.0582C81.3457 14.7557 81.1092 14.5192 80.8066 14.3487C80.5083 14.174 80.161 14.0866 79.7647 14.0866C79.3514 14.0866 78.9849 14.1825 78.6653 14.3743C78.35 14.5618 78.1028 14.8153 77.9238 15.1349C77.7449 15.4503 77.6532 15.8018 77.649 16.1896V17.794C77.649 18.2798 77.7385 18.6996 77.9174 19.0533C78.1007 19.407 78.3585 19.6797 78.6909 19.8714C79.0233 20.0632 79.4174 20.1591 79.8734 20.1591C80.176 20.1591 80.4529 20.1165 80.7044 20.0312C80.9558 19.946 81.171 19.8182 81.35 19.6477C81.5289 19.4773 81.6653 19.2685 81.7591 19.0213L84.2775 19.1875C84.1497 19.7926 83.8876 20.321 83.4913 20.7727C83.0993 21.2202 82.5922 21.5696 81.97 21.821C81.3521 22.0682 80.6383 22.1918 79.8287 22.1918ZM86.1632 22V8.90909H94.9842V11.1911H88.9309V14.3104H94.5304V16.5923H88.9309V19.718H95.0098V22H86.1632ZM99.9332 22.1854C99.3068 22.1854 98.7486 22.0767 98.2585 21.8594C97.7685 21.6378 97.3807 21.3118 97.0952 20.8814C96.8139 20.4467 96.6733 19.9055 96.6733 19.2578C96.6733 18.7124 96.7734 18.2543 96.9737 17.8835C97.174 17.5128 97.4467 17.2145 97.7919 16.9886C98.1371 16.7628 98.5291 16.5923 98.968 16.4773C99.4112 16.3622 99.8757 16.2812 100.362 16.2344C100.933 16.1747 101.393 16.1193 101.742 16.0682C102.092 16.0128 102.345 15.9318 102.503 15.8253C102.661 15.7187 102.739 15.5611 102.739 15.3523V15.3139C102.739 14.9091 102.612 14.5959 102.356 14.3743C102.104 14.1527 101.746 14.0419 101.282 14.0419C100.792 14.0419 100.402 14.1506 100.112 14.3679C99.8224 14.581 99.6307 14.8494 99.5369 15.1733L97.0185 14.9688C97.1463 14.3722 97.3977 13.8565 97.7727 13.4219C98.1477 12.983 98.6314 12.6463 99.2237 12.4119C99.8203 12.1733 100.511 12.054 101.295 12.054C101.84 12.054 102.362 12.1179 102.861 12.2457C103.364 12.3736 103.809 12.5717 104.197 12.8402C104.589 13.1087 104.898 13.4538 105.124 13.8757C105.349 14.2933 105.462 14.794 105.462 15.3778V22H102.88V20.6385H102.803C102.646 20.9453 102.435 21.2159 102.17 21.4503C101.906 21.6804 101.589 21.8615 101.218 21.9936C100.847 22.1214 100.419 22.1854 99.9332 22.1854ZM100.713 20.3061C101.114 20.3061 101.467 20.2273 101.774 20.0696C102.081 19.9077 102.322 19.6903 102.496 19.4176C102.671 19.1449 102.759 18.8359 102.759 18.4908V17.4489C102.673 17.5043 102.556 17.5554 102.407 17.6023C102.262 17.6449 102.098 17.6854 101.915 17.7237C101.732 17.7578 101.548 17.7898 101.365 17.8196C101.182 17.8452 101.016 17.8686 100.866 17.8899C100.547 17.9368 100.268 18.0114 100.029 18.1136C99.7905 18.2159 99.6051 18.3544 99.473 18.5291C99.3409 18.6996 99.2749 18.9126 99.2749 19.1683C99.2749 19.5391 99.4091 19.8224 99.6776 20.0185C99.9503 20.2102 100.295 20.3061 100.713 20.3061ZM115.744 14.9815L113.251 15.1349C113.208 14.9219 113.117 14.7301 112.976 14.5597C112.836 14.3849 112.65 14.2464 112.42 14.1442C112.194 14.0376 111.924 13.9844 111.608 13.9844C111.186 13.9844 110.831 14.0739 110.541 14.2528C110.251 14.4276 110.106 14.6619 110.106 14.956C110.106 15.1903 110.2 15.3885 110.387 15.5504C110.575 15.7124 110.897 15.8423 111.353 15.9403L113.13 16.2983C114.084 16.4943 114.796 16.8097 115.265 17.2443C115.733 17.679 115.968 18.25 115.968 18.9574C115.968 19.6009 115.778 20.1655 115.399 20.6513C115.024 21.1371 114.508 21.5163 113.852 21.7891C113.2 22.0575 112.448 22.1918 111.596 22.1918C110.296 22.1918 109.26 21.9212 108.489 21.38C107.722 20.8345 107.272 20.093 107.14 19.1555L109.819 19.0149C109.9 19.4112 110.096 19.7138 110.407 19.9226C110.718 20.1271 111.116 20.2294 111.602 20.2294C112.079 20.2294 112.463 20.1378 112.752 19.9545C113.047 19.767 113.196 19.5263 113.2 19.2322C113.196 18.9851 113.091 18.7827 112.887 18.625C112.682 18.4631 112.367 18.3395 111.941 18.2543L110.24 17.9155C109.282 17.7237 108.568 17.3913 108.099 16.9183C107.635 16.4453 107.402 15.8423 107.402 15.1094C107.402 14.4787 107.573 13.9354 107.914 13.4794C108.259 13.0234 108.743 12.6719 109.365 12.4247C109.991 12.1776 110.724 12.054 111.564 12.054C112.804 12.054 113.779 12.3161 114.491 12.8402C115.207 13.3643 115.625 14.0781 115.744 14.9815ZM122.157 22.1918C121.147 22.1918 120.278 21.9872 119.549 21.5781C118.824 21.1648 118.266 20.581 117.874 19.8267C117.482 19.0682 117.286 18.1712 117.286 17.1357C117.286 16.1257 117.482 15.2393 117.874 14.4766C118.266 13.7138 118.818 13.1193 119.53 12.6932C120.246 12.267 121.085 12.054 122.048 12.054C122.696 12.054 123.299 12.1584 123.857 12.3672C124.42 12.5717 124.91 12.8807 125.327 13.294C125.749 13.7074 126.077 14.2273 126.312 14.8537C126.546 15.4759 126.663 16.2045 126.663 17.0398V17.7876H118.373V16.1001H124.1C124.1 15.7081 124.015 15.3608 123.844 15.0582C123.674 14.7557 123.437 14.5192 123.135 14.3487C122.836 14.174 122.489 14.0866 122.093 14.0866C121.68 14.0866 121.313 14.1825 120.993 14.3743C120.678 14.5618 120.431 14.8153 120.252 15.1349C120.073 15.4503 119.981 15.8018 119.977 16.1896V17.794C119.977 18.2798 120.067 18.6996 120.246 19.0533C120.429 19.407 120.687 19.6797 121.019 19.8714C121.351 20.0632 121.746 20.1591 122.202 20.1591C122.504 20.1591 122.781 20.1165 123.032 20.0312C123.284 19.946 123.499 19.8182 123.678 19.6477C123.857 19.4773 123.993 19.2685 124.087 19.0213L126.606 19.1875C126.478 19.7926 126.216 20.321 125.819 20.7727C125.427 21.2202 124.92 21.5696 124.298 21.821C123.68 22.0682 122.966 22.1918 122.157 22.1918Z" fill="black"/>
</g>
</g>
<defs>
<linearGradient id="paint0_linear_2540_5697" x1="33.9189" y1="9.60374" x2="3.37568" y2="9.60374" gradientUnits="userSpaceOnUse">
<stop stop-color="#64C2DB"/>
<stop offset="0.510417" stop-color="#7476ED"/>
<stop offset="1" stop-color="#E56F8C"/>
</linearGradient>
<clipPath id="clip0_2540_5697">
<rect width="137" height="32" fill="white"/>
</clipPath>
<clipPath id="clip1_2540_5697">
<rect width="148.773" height="29" fill="white" transform="translate(1.07031 1)"/>
</clipPath>
</defs>
</svg>
