<svg width="37" height="37" viewBox="0 0 37 37" fill="none" xmlns="http://www.w3.org/2000/svg">
<path d="M11.7138 28.2861C8.9372 31.0628 4.23465 31.0517 2.92135 27.3511C2.66423 26.6266 2.45865 25.8816 2.30744 25.1215C1.69008 22.0177 2.00693 18.8007 3.21794 15.877C4.42894 12.9534 6.47969 10.4546 9.11088 8.69649C11.7421 6.93838 14.8355 6 18 6C21.1645 6 24.258 6.93838 26.8891 8.69649C29.5203 10.4546 31.5711 12.9534 32.7821 15.8771C33.9931 18.8007 34.3099 22.0177 33.6926 25.1215C33.5414 25.8816 33.3358 26.6266 33.0786 27.3511C31.7653 31.0517 27.0628 31.0628 24.2861 28.2861L20 24C19.5905 23.5905 19.6328 22.9152 19.7458 22.3472C19.8144 22.002 19.7792 21.6441 19.6444 21.3188C19.5097 20.9936 19.2816 20.7156 18.9889 20.52C18.6962 20.3245 18.3521 20.2201 18 20.2201C17.648 20.2201 17.3039 20.3245 17.0112 20.52C16.7184 20.7156 16.4903 20.9936 16.3555 21.3188C16.2208 21.6441 16.1856 22.002 16.2543 22.3472C16.3673 22.9152 16.4095 23.5905 16 24L11.7138 28.2861Z" fill="url(#paint0_linear_2540_5720)"/>
<defs>
<linearGradient id="paint0_linear_2540_5720" x1="32.5436" y1="14" x2="4.1436" y2="14" gradientUnits="userSpaceOnUse">
<stop stop-color="#64C2DB"/>
<stop offset="0.510417" stop-color="#7476ED"/>
<stop offset="1" stop-color="#E56F8C"/>
</linearGradient>
</defs>
</svg>
