<svg width="142" height="116" viewBox="0 0 142 116" fill="none" xmlns="http://www.w3.org/2000/svg">
<g opacity="0.3" clip-path="url(#clip0_2540_7248)">
<path fill-rule="evenodd" clip-rule="evenodd" d="M141.377 18.1171C120.202 28.1823 109.615 40.0086 109.615 53.5965C118.64 54.603 126.103 58.1677 132.005 64.2907C137.906 70.4136 140.857 77.501 140.857 85.5531C140.857 94.1085 137.993 101.322 132.265 107.193C126.537 113.064 119.334 116 110.656 116C100.936 116 92.5185 112.184 85.4023 104.551C78.286 96.9183 74.728 87.6501 74.728 76.7462C74.728 44.0345 93.6465 18.4527 131.484 0L141.377 18.1171ZM66.6493 18.1171C45.3006 28.1823 34.6264 40.0086 34.6264 53.5965C43.8254 54.603 51.3755 58.1677 57.2767 64.2907C63.178 70.4136 66.1286 77.501 66.1286 85.5531C66.1286 94.1085 63.2214 101.322 57.4069 107.193C51.5924 113.064 44.3461 116 35.6678 116C25.948 116 17.5736 112.184 10.5441 104.551C3.51467 96.9183 0 87.6501 0 76.7462C0 44.0345 18.8317 18.4527 56.4957 0L66.6493 18.1171Z" fill="#7C3AED"/>
</g>
<defs>
<clipPath id="clip0_2540_7248">
<rect width="142" height="116" fill="white"/>
</clipPath>
</defs>
</svg>
