<svg width="24" height="24" viewBox="0 0 24 24" fill="none" xmlns="http://www.w3.org/2000/svg">
<path d="M19.248 19.2311C18.8577 19.6215 18.225 19.6221 17.834 19.2325L12.9375 14.3542C12.5347 14.6725 12.0593 14.9223 11.5113 15.1034C10.9632 15.2845 10.3692 15.375 9.72917 15.375C8.12969 15.375 6.77497 14.8194 5.66498 13.7083C4.55499 12.5972 4 11.2569 4 9.6875C4 8.11806 4.55556 6.77778 5.66667 5.66667C6.77778 4.55556 8.12153 4 9.69792 4C11.2743 4 12.6146 4.55556 13.7188 5.66667C14.8229 6.77778 15.375 8.1191 15.375 9.69063C15.375 10.3135 15.2882 10.8924 15.1146 11.4271C14.941 11.9618 14.6806 12.4653 14.3333 12.9375L19.2454 17.8132C19.6387 18.2036 19.6399 18.8393 19.248 19.2311V19.2311ZM9.71569 13.4167C10.7559 13.4167 11.6328 13.0538 12.3464 12.3281C13.0599 11.6024 13.4167 10.7222 13.4167 9.6875C13.4167 8.65278 13.0589 7.77257 12.3433 7.04688C11.6277 6.32118 10.7518 5.95833 9.71569 5.95833C8.66797 5.95833 7.77981 6.32118 7.05121 7.04688C6.32263 7.77257 5.95833 8.65278 5.95833 9.6875C5.95833 10.7222 6.3216 11.6024 7.04815 12.3281C7.7747 13.0538 8.66388 13.4167 9.71569 13.4167Z" fill="white"/>
</svg>
